<svg version="1.1" id="Layer_1" xmlns="http://www.w3.org/2000/svg" xmlns:xlink="http://www.w3.org/1999/xlink" x="0px" y="0px"
	 width="100%" viewBox="0 0 1024 336" enable-background="new 0 0 1024 336" xml:space="preserve">
<path fill="#000000" opacity="1.000000" stroke="none" 
	d="
M343.179382,16.842051 
	C366.803101,16.476727 389.977478,15.683404 412.928406,19.673143 
	C434.008331,23.337637 454.809662,28.071926 473.123138,39.882805 
	C488.464813,49.777115 500.011414,62.703171 503.892822,81.202164 
	C505.689148,89.763603 505.242737,98.373863 503.668182,107.017937 
	C507.258484,108.450356 510.592072,107.756752 513.856262,107.768631 
	C516.778381,107.779266 517.107178,105.346359 517.734985,103.317101 
	C520.031433,95.894203 523.583618,89.161034 528.721558,83.314018 
	C538.864136,71.771690 554.218750,73.675667 561.116882,87.351265 
	C563.382141,91.842178 564.962219,96.618019 565.278809,101.646851 
	C565.579407,106.420937 567.622559,108.040863 572.529541,108.005890 
	C602.527649,107.792076 632.527893,107.890511 662.527466,107.914368 
	C664.684143,107.916084 666.901794,107.876831 668.984314,108.338272 
	C672.985718,109.224892 675.475281,111.629250 675.303467,116.056725 
	C675.131348,120.492699 672.489868,122.644218 668.386597,123.196846 
	C666.417419,123.462044 664.395081,123.373734 662.396790,123.374405 
	C632.897217,123.384338 603.397095,123.475075 573.898743,123.290031 
	C569.090942,123.259880 567.227112,124.373192 567.072754,129.603409 
	C566.176086,159.991165 558.993652,189.186218 549.426819,217.865494 
	C544.891479,231.461472 539.976379,244.912735 532.222961,257.106903 
	C531.268005,258.608795 530.978210,260.263367 531.482849,261.904388 
	C535.594421,275.274048 540.949036,287.950287 552.284851,297.016418 
	C560.528320,303.609375 569.017212,303.617462 577.332947,296.797211 
	C588.492737,287.644287 596.363403,275.836090 602.724304,263.102448 
	C608.207458,252.125824 614.787964,242.077759 623.711243,233.639130 
	C627.505859,230.050583 631.962341,227.447525 636.810059,225.527130 
	C641.896240,223.512268 646.011169,224.468231 647.784912,228.033844 
	C649.802429,232.089523 648.525940,236.192429 643.576416,238.796860 
	C631.953430,244.912888 624.388367,253.950485 621.751770,266.962189 
	C618.605835,282.487366 624.274597,296.125671 636.597961,302.439972 
	C649.481506,309.041290 669.084595,303.029205 676.140198,290.487396 
	C677.764343,287.600342 676.511047,286.562744 674.300720,285.005402 
	C658.942444,274.184448 650.432983,259.867676 651.654663,240.491241 
	C652.429382,228.203979 659.660156,219.396500 670.514709,218.200989 
	C679.151062,217.249771 688.436340,223.004944 692.993042,232.718063 
	C698.728516,244.943726 700.220459,257.977539 698.626404,271.256470 
	C698.068604,275.903198 699.266174,277.048065 703.737488,277.015778 
	C716.777039,276.921631 726.267273,271.104645 733.004395,260.173492 
	C737.775818,252.431625 741.432068,244.343323 742.022217,234.884567 
	C739.376221,233.565506 736.499878,233.788910 733.791382,233.327576 
	C725.447754,231.906433 721.179749,226.377960 722.623230,218.101959 
	C724.471130,207.506500 729.089050,198.141083 736.568176,190.399277 
	C742.949402,183.793945 750.646790,185.107208 754.976807,193.191116 
	C758.188354,199.186798 759.516479,205.721161 759.996216,212.379837 
	C760.270386,216.184769 762.001404,217.230438 765.417297,216.967529 
	C770.253174,216.595322 775.068237,216.898514 779.851624,217.744995 
	C790.207703,219.577637 795.800171,226.089676 796.304810,236.623077 
	C796.739136,245.686188 794.782593,254.498169 793.844360,263.419250 
	C793.080139,270.685791 791.841431,277.936310 793.078613,285.292267 
	C795.459351,299.447327 807.117493,306.138580 820.484436,300.797638 
	C829.645447,297.137207 835.902039,289.863281 841.944763,282.536316 
	C850.044922,272.714691 856.191711,261.547119 861.756592,250.218292 
	C864.787109,244.048660 866.001953,236.976364 869.912781,231.041687 
	C879.084045,217.124222 896.163513,212.214630 909.046204,219.906586 
	C919.997131,226.445129 924.544373,239.852524 920.740662,254.154831 
	C916.433350,270.351135 905.550598,281.124756 891.749329,289.521515 
	C890.469971,290.299896 889.179077,291.059814 887.913391,291.859680 
	C887.502197,292.119537 887.154480,292.479706 886.416260,293.095551 
	C892.055420,300.721375 899.679077,303.982056 908.663208,304.648499 
	C924.046448,305.789581 934.913391,297.734406 944.296875,286.883270 
	C951.105652,279.009583 956.046265,269.932312 960.609009,260.640411 
	C961.783630,258.248260 962.894897,255.822266 964.147766,253.471802 
	C966.767517,248.557007 970.510620,246.913269 974.714600,248.733032 
	C979.333740,250.732529 980.948425,255.092468 978.601685,260.452057 
	C972.830505,273.632385 965.525574,285.909882 956.527832,297.174866 
	C949.751038,305.659271 941.622375,312.479767 931.636719,316.729004 
	C903.299133,328.787567 873.273438,314.684540 864.173096,285.230560 
	C863.880188,284.282532 863.614685,283.326050 863.059082,281.423828 
	C859.760620,285.744354 856.816772,289.568695 853.906677,293.418518 
	C846.661621,303.002808 838.060913,310.992737 826.915710,315.830322 
	C803.386230,326.043274 778.487488,310.646454 776.651123,284.990356 
	C775.870300,274.081116 777.491333,263.414764 779.161133,252.742950 
	C779.836853,248.424423 779.765015,244.117462 779.857422,239.802170 
	C779.905151,237.572098 779.291687,235.211731 777.006165,234.369308 
	C771.538574,232.353943 765.835938,233.083664 760.252869,233.796463 
	C758.362061,234.037857 758.539917,236.362915 758.163025,237.963867 
	C755.334839,249.977890 752.307800,261.792175 744.405334,271.889862 
	C732.193604,287.493988 716.282288,294.324890 696.831787,293.036133 
	C693.229797,292.797485 691.593506,293.644562 689.777283,296.582642 
	C677.022400,317.216888 652.762268,325.744904 631.341614,317.208435 
	C621.137878,313.142029 613.748657,305.978973 609.167358,295.968384 
	C608.339722,294.159943 607.562866,292.328339 606.529053,289.976044 
	C602.792847,294.314697 599.519958,298.590179 595.764160,302.388153 
	C584.208923,314.073303 571.399231,322.233185 553.894531,316.308075 
	C543.247375,312.704163 535.804199,305.258942 529.711853,296.286774 
	C518.123962,279.221405 512.882751,259.857117 509.824371,239.773788 
	C506.348999,216.952103 506.334564,194.024124 507.418762,171.012863 
	C508.093658,156.688370 509.325653,142.464493 511.691315,128.335983 
	C512.411926,124.032257 510.275208,123.326195 506.602600,123.344734 
	C486.436829,123.446533 466.270111,123.389931 446.103821,123.354698 
	C443.944489,123.350922 441.737885,123.374687 439.637299,122.959915 
	C436.293732,122.299698 434.607819,119.834663 434.104004,116.623154 
	C433.575592,113.254944 435.100281,110.799889 438.018707,109.219315 
	C440.285736,107.991501 442.791626,107.888519 445.314789,107.890121 
	C457.647919,107.897934 469.981720,107.804230 482.313812,107.912926 
	C485.820343,107.943825 487.243835,107.208313 487.954376,103.122818 
	C492.112152,79.216881 480.982941,63.343971 461.592743,51.873524 
	C445.273102,42.219498 427.118805,38.132687 408.557587,35.257839 
	C384.029724,31.458857 359.420197,31.311968 334.821716,33.414944 
	C298.095215,36.554760 262.324677,43.812992 229.277451,61.096172 
	C212.678238,69.777298 197.851715,80.701973 187.762634,96.904144 
	C172.096191,122.063072 174.935959,153.104599 205.303146,170.111404 
	C224.109009,180.643433 244.680328,185.224869 265.607361,188.628036 
	C291.254120,192.798721 317.198456,194.254761 343.024933,196.806549 
	C367.671326,199.241745 392.495331,200.763397 416.472717,207.720490 
	C427.771606,210.998901 438.756439,215.250519 446.656403,224.431763 
	C458.614532,238.329361 459.612030,260.665833 449.640747,277.870270 
	C442.264465,290.597412 431.183807,299.219666 418.330139,305.655212 
	C395.264923,317.203461 370.459442,321.166321 344.942810,322.489471 
	C313.330536,324.128632 282.523346,319.997406 252.233612,311.244324 
	C241.637466,308.182281 231.388214,304.197174 221.969299,298.388489 
	C217.858521,295.853363 216.862381,291.794952 218.873581,288.066010 
	C220.789154,284.514374 225.178436,282.863556 229.206390,284.217438 
	C229.991501,284.481323 230.744629,284.859314 231.482254,285.242889 
	C256.631165,298.320435 283.792633,303.438690 311.710236,305.774994 
	C332.550629,307.519012 353.323242,307.259125 373.915039,303.610046 
	C393.096619,300.210876 411.583405,294.812042 426.391388,281.070526 
	C432.388977,275.504852 436.582336,268.868988 438.670319,260.866638 
	C442.267853,247.078842 437.423218,235.150558 424.856018,228.300659 
	C412.501343,221.566559 398.826416,219.259460 385.122894,217.358170 
	C353.128815,212.919159 320.803589,211.865082 288.740723,208.175827 
	C261.919861,205.089737 235.315506,200.672714 210.156952,190.247864 
	C194.532394,183.773590 180.032486,175.321564 171.064468,160.428528 
	C157.032013,137.125031 159.439987,113.378967 172.531540,90.778038 
	C185.989685,67.544258 207.426758,53.243046 231.380829,42.340057 
	C258.763397,29.876537 287.690033,23.084854 317.331818,19.040251 
	C325.730621,17.894239 334.240509,17.562025 343.179382,16.842051 
M550.795288,129.712692 
	C551.498901,125.062103 549.810120,122.896820 544.819702,123.319435 
	C540.854431,123.655235 536.836182,123.478539 532.845947,123.367584 
	C530.069641,123.290398 528.507263,124.239494 528.115051,127.186401 
	C527.260925,133.604004 526.079712,139.978897 525.265198,146.400803 
	C522.197388,170.590866 523.158325,194.899323 523.419983,219.175613 
	C523.475891,224.356812 523.985718,229.628647 525.805969,235.000061 
	C528.060181,232.613464 528.808899,230.030945 529.697571,227.579910 
	C532.132874,220.862930 534.627869,214.155731 536.720947,207.328659 
	C544.387573,182.322006 549.942322,156.910156 550.795288,129.712692 
M905.214539,248.627426 
	C905.364929,246.648392 905.721680,244.659729 905.629822,242.691986 
	C905.243469,234.416702 898.509155,230.232315 890.940063,233.466293 
	C887.779114,234.816833 885.344543,237.010315 883.534973,239.904129 
	C877.507690,249.542831 876.429932,260.118469 877.897217,271.083618 
	C878.206665,273.395996 877.705139,276.168701 880.516541,278.203644 
	C892.616272,272.016022 901.669983,263.226196 905.214539,248.627426 
M678.961060,240.618195 
	C678.089050,239.211090 677.293030,237.749023 676.325317,236.411163 
	C675.183777,234.832901 673.604187,233.910217 671.589478,234.309967 
	C669.376587,234.749008 668.256592,236.426514 667.639099,238.403137 
	C664.707397,247.787354 672.752075,265.516479 682.437256,270.212341 
	C683.869873,260.149261 682.509766,250.641327 678.961060,240.618195 
M542.467896,107.893837 
	C550.445251,107.840683 551.143127,106.839890 548.546082,99.159004 
	C548.067139,97.742554 547.681458,96.280403 547.055664,94.930672 
	C545.715393,92.039696 543.677063,91.286583 541.131836,93.506104 
	C536.983032,97.123970 534.892700,101.833618 533.612244,107.045830 
	C536.558411,108.330399 539.089966,107.703384 542.467896,107.893837 
M740.751526,208.682831 
	C739.678162,211.368805 738.604736,214.054779 737.163757,217.660767 
	C740.320129,217.268753 743.225220,218.997894 744.325073,215.845581 
	C745.336060,212.947601 744.605530,209.766129 742.586914,207.175491 
	C742.555359,207.135071 741.618774,207.799881 740.751526,208.682831 
z"/>
<path fill="#000000" opacity="1.000000" stroke="none" 
	d="
M108.602997,302.695312 
	C123.435295,296.225677 132.587036,284.534485 140.098038,271.310394 
	C143.544479,265.242523 146.466125,258.878662 149.728729,252.703415 
	C151.436020,249.471970 154.230316,247.806259 157.932388,248.139114 
	C161.568542,248.466034 163.291534,251.088623 164.647476,254.105927 
	C165.581497,256.184296 164.851212,258.093384 164.036285,259.876282 
	C155.669891,278.180084 145.905060,295.631165 130.089096,308.641052 
	C102.038704,331.714630 59.443211,322.432404 48.794479,283.140991 
	C44.765888,268.276367 44.953243,253.464462 50.811096,239.093216 
	C54.631893,229.719513 60.755402,222.294662 70.552132,218.354538 
	C80.086609,214.519882 88.857399,215.796204 96.868240,221.922379 
	C105.326317,228.390564 107.969864,237.372482 106.930450,247.615814 
	C104.878036,267.842010 92.072372,280.300598 75.882233,290.263000 
	C74.751701,290.958649 73.562569,291.559265 72.434364,292.258423 
	C72.193512,292.407684 72.099319,292.793579 71.942764,293.073486 
	C78.441170,303.370728 93.109283,307.304047 108.602997,302.695312 
M73.223701,273.733826 
	C83.066315,266.603943 89.681175,257.480347 90.752708,245.020691 
	C91.198051,239.842361 89.890404,235.416794 84.666801,233.089111 
	C80.545029,231.252411 75.337158,232.787308 71.112206,236.842087 
	C63.424152,244.220444 59.098518,266.837036 65.368729,278.193390 
	C67.983734,277.221558 70.391808,275.839783 73.223701,273.733826 
z"/>
</svg>